<?xml version="1.0" encoding="utf-8"?>
<!-- Generator: Adobe Illustrator 20.0.0, SVG Export Plug-In . SVG Version: 6.00 Build 0)  -->
<svg version="1.1" id="Layer_1" xmlns="http://www.w3.org/2000/svg" xmlns:xlink="http://www.w3.org/1999/xlink" x="0px" y="0px"
	 viewBox="0 0 400 353" style="enable-background:new 0 0 400 353;" xml:space="preserve">
<style type="text/css">
	.st0{fill:#FFFFFF;}
</style>
<g>
	<path class="st0" d="M209.5,91.8c0-4.7-4.3-8.7-9-8.7h-15.3c-4.7,0-8.7,3.9-8.7,8.7v94.3h-121v63.9c0,32.3,8.9,53.8,25.9,64.4
		c17.1,10.6,35.9,15.9,56.2,15.9c10.2-0.5,102.3,0,112.9,0c19.9-0.9,38-6.7,54.4-17.3c16.4-10.6,24.6-31.6,24.6-63v-63.9h-120V91.8z
		"/>
	<path class="st0" d="M71.2,148.2c18.4-14.9,21.8-41.9,7.2-60.9c-2.1-2.8-4.5-5.2-7.2-7.3c-18.4,14.9-21.8,41.9-7.2,60.9
		C66.2,143.6,68.6,146.1,71.2,148.2z"/>
	<path class="st0" d="M64.4,151.5C51,133.9,26.8,129.3,8,139.9c0.2,0.3,0.4,0.6,0.6,0.9c13.5,17.6,37.7,22.1,56.5,11.6
		C64.8,152.1,64.7,151.8,64.4,151.5z"/>
	<path class="st0" d="M56.7,179.1h66.5c0-18-14.9-33.2-33.2-33.2S56.7,161.1,56.7,179.1z"/>
	<path class="st0" d="M292.2,179.1c11.9-48,21-100.8,25.7-154c-8.2-1-20.1-2.1-30.2-1.1c-3.5,48.3-5.4,104.1-12.5,155.1H292.2z"/>
	<path class="st0" d="M314.8,122.2c-4.2,9.9-10.2,19.4-12.9,29c-2.7,9.6-4.6,19-6.5,28h8c24.3-45,47.2-90.8,68.2-139
		c-7.2-3.6-13.9-7.5-21.3-10.9c-9.8,19-16.2,40.7-24,62.2C322.8,101.4,319.1,112,314.8,122.2z"/>
	<path class="st0" d="M342.8,36.5c-2.1-0.7-6.4-5.3-8-2.2c-9.3,32.4-24.4,61.4-28,98.1C320.5,102.1,330.8,68.5,342.8,36.5z"/>
	<path class="st0" d="M375.6,84.5c-7.3,11.8-16.5,22.3-24.4,33.7c-7.7,11.1-16.2,21-24.4,32.1c-6.5,8.8-12.9,19.9-19,28.9H329
		c17.8-26,37.8-50.6,63-69.7C388.1,99.4,383.6,90.3,375.6,84.5z"/>
	<path class="st0" d="M133.9,179.1h34.6V128c-25-59.1-53.1-100.8-65-96.2c-13.3,5.2-1.8,65.9,25.7,135.9
		C130.7,171.8,132.3,176.1,133.9,179.1z M140.8,138c3.2-16.3,7.7-27.5,10-24.9c2.3,2.5,1.6,17.7-1.6,34c-3.2,16.3-7.7,27.4-10,24.9
		C136.8,169.5,137.6,154.3,140.8,138z M120.6,124.6c-2.4-2.5-1.8-16.7,1.1-31.6c3-15,7.3-25.1,9.6-22.6c2.3,2.5,1.8,16.7-1.1,31.7
		C127.2,117,122.9,127.1,120.6,124.6z"/>
	<path class="st0" d="M243.8,137.4c0.2,10.6,1.2,26.6,2.3,42.1c0,0,0.1-0.3,0.1-0.3h24.3c1.5-14,3.1-30.7,4.2-42.1
		c2.8-28.3-6.9-32.5-15.5-32.5C250.7,104.5,243.3,111.6,243.8,137.4z"/>
	<path class="st0" d="M234.9,148.6c2.4-20.6-6.1-23.6-13.5-23.6c-1.7,0-3,0.5-5,1.1v51.5c0,0.7,0.1,1.5,0,1.5h14.8
		C232.6,168.1,233.9,156.9,234.9,148.6z"/>
	<polygon class="st0" points="261,100.1 268.4,66.1 260.4,74.8 264.1,50.5 256.3,64.1 249.8,27.3 247,54.8 240.6,45.4 253.5,100.1 	
		"/>
	<path class="st0" d="M223.6,122.5l11.8-18.1l-9.4,4.4l7.6-15.7l-7.6,5.7l2.2-18.3l-7.4,12.9l-4.2-25.6V123
		C220.5,121.9,223.6,122.5,223.6,122.5z"/>
</g>
</svg>
